<svg width="626" height="185" viewBox="0 0 626 185" fill="none" xmlns="http://www.w3.org/2000/svg">
<g clip-path="url(#clip0)">
<mask id="mask0" mask-type="alpha" maskUnits="userSpaceOnUse" x="-24" y="-19" width="673" height="226">
<path d="M-23.1003 206.405H648.454V-18.3471H-23.1003V206.405Z" fill="white"/>
</mask>
<g mask="url(#mask0)">
<path fill-rule="evenodd" clip-rule="evenodd" d="M0.205566 92.3701H78.2822V0.712494H0.205566V92.3701Z" fill="#E15295"/>
<path fill-rule="evenodd" clip-rule="evenodd" d="M108.415 75.3914V66.8263H120.581V26.848H108.415V18.2921H141.858V26.848H129.708V66.8263H141.858V75.3914H108.415Z" fill="#3768C1"/>
<path fill-rule="evenodd" clip-rule="evenodd" d="M179.867 75.3914V26.848H165.572V18.2921H203.281V26.848H188.983V75.3914H179.867Z" fill="#3768C1"/>
<path fill-rule="evenodd" clip-rule="evenodd" d="M240.36 59.3384L233.191 34.4169L233.864 75.3906H225.771V18.2913H235.497L243.947 48.5518L252.227 18.2913H261.645V75.3906H253.614L254.226 34.6401L247.116 59.3384H240.36Z" fill="#3768C1"/>
<path fill-rule="evenodd" clip-rule="evenodd" d="M302.989 76.1223C297.32 76.1223 293.008 74.4313 290.072 71.0769C287.125 67.7193 285.661 62.9384 285.661 56.708V37.2784C285.661 31.0007 287.141 26.1356 290.103 22.7047C293.063 19.2799 297.379 17.5767 303.052 17.5767C308.724 17.5767 313.023 19.2799 315.94 22.7047C318.854 26.1356 320.313 31.0007 320.313 37.2784V56.708C320.313 62.9384 318.842 67.7193 315.906 71.0769C312.97 74.4313 308.663 76.1223 302.989 76.1223ZM302.989 67.5435C305.949 67.5435 308.056 66.6659 309.315 64.9061C310.567 63.1479 311.196 60.171 311.196 55.9818V37.9955C311.196 33.7114 310.567 30.6674 309.315 28.8525C308.056 27.0407 305.949 26.1356 302.989 26.1356C300.071 26.1356 297.974 27.0407 296.698 28.8525C295.42 30.6674 294.782 33.7114 294.782 37.9955V55.9818C294.782 60.171 295.42 63.1479 296.698 64.9061C297.974 66.6659 300.071 67.5435 302.989 67.5435Z" fill="#3768C1"/>
<path fill-rule="evenodd" clip-rule="evenodd" d="M178.698 143.539H190.081L184.543 118.855L178.698 143.539Z" fill="#3768C1"/>
<path fill-rule="evenodd" clip-rule="evenodd" d="M78.2705 184.012H351.508V92.3655H78.2705V184.012ZM142.772 132.766C142.772 137.999 141.376 141.871 138.578 144.352C135.785 146.858 131.748 148.124 126.48 148.124H117.553V166.735H108.417V109.632H126.48C131.705 109.632 135.73 110.907 138.547 113.462C141.369 115.993 142.772 119.956 142.772 125.325V132.766ZM195.31 166.735L192.026 152.102H176.705L173.239 166.735H164.657L179.129 109.632H189.772L204.249 166.735H195.31ZM253.01 166.735L242.136 145.749H236.112V166.735H226.988V109.632H246.203C251.468 109.632 255.362 110.936 257.883 113.54C260.395 116.123 261.656 119.973 261.656 125.08V129.868C261.656 134.108 260.801 137.515 259.124 140.063C257.445 142.618 254.92 144.271 251.552 145.029L262.795 166.735H253.01ZM322.391 166.735H312.599L297.825 141.186H295.39V166.735H286.276V109.632H295.39V132.622H297.639L312.84 109.632H322.577L304.758 135.972L322.391 166.735Z" fill="#3768C1"/>
<path fill-rule="evenodd" clip-rule="evenodd" d="M252.832 125.486C252.832 122.824 252.253 120.941 251.123 119.846C249.987 118.756 248.027 118.198 245.23 118.198H236.109V137.187H245.23C248.027 137.187 249.987 136.627 251.123 135.51C252.253 134.394 252.832 132.424 252.832 129.625V125.486Z" fill="#3768C1"/>
<path fill-rule="evenodd" clip-rule="evenodd" d="M126.059 118.196H117.552V139.685H126.059C128.734 139.685 130.662 139.145 131.867 138.046C133.051 136.951 133.653 134.979 133.653 132.129V125.911C133.653 123.006 133.051 121.002 131.867 119.882C130.662 118.756 128.734 118.196 126.059 118.196Z" fill="#3768C1"/>
<path fill-rule="evenodd" clip-rule="evenodd" d="M351.508 92.3654H624.736V0.704834H351.508V92.3654ZM416.133 75.324H407.009V48.2085H391.805V75.324H382.693V18.2187H391.805V39.6359H407.009V18.2187H416.133V75.324ZM475.413 26.7807H463.252V66.7651H475.413V75.324H441.966V66.7651H454.135V26.7807H441.966V18.2187H475.413V26.7807ZM535.918 55.5581C535.918 62.1218 534.423 67.1902 531.448 70.7311C528.459 74.2706 524.199 76.0396 518.645 76.0396C512.839 76.0396 508.4 74.2981 505.297 70.829C502.203 67.3568 500.653 62.3802 500.653 55.9097V37.9265C500.653 31.3521 502.175 26.3128 505.236 22.7795C508.297 19.2599 512.662 17.5093 518.341 17.5093C523.78 17.5093 527.89 19.0107 530.682 22.0318C533.478 25.0576 535.018 29.519 535.305 35.4221L526.184 36.1346C525.902 32.4209 525.17 29.814 523.993 28.3218C522.82 26.8112 520.96 26.0728 518.403 26.0728C515.246 26.0728 513.011 27.0161 511.717 28.889C510.416 30.7666 509.773 34.0186 509.773 38.6329V55.1942C509.773 59.7168 510.431 62.8985 511.768 64.7225C513.116 66.5602 515.38 67.4761 518.578 67.4761C521.624 67.4761 523.774 66.5021 525.007 64.5512C526.235 62.5973 526.839 59.2168 526.789 54.4114H517.986V45.8433H535.918V55.5581ZM593.973 75.324H584.865V48.2085H569.657V75.324H560.54V18.2187H569.657V39.6359H584.865V18.2187H593.973V75.324Z" fill="#3768C1"/>
</g>
</g>
<defs>
<clipPath id="clip0">
<rect width="626" height="185" fill="white"/>
</clipPath>
</defs>
</svg>
