<svg width="297" height="128" viewBox="0 0 297 128" fill="none" xmlns="http://www.w3.org/2000/svg">
<path fill-rule="evenodd" clip-rule="evenodd" d="M93.658 44.2152C93.658 46.3688 91.9129 48.112 89.7609 48.112C87.6089 48.112 85.8638 46.3688 85.8638 44.2152C85.8638 42.0633 87.6089 40.3183 89.7609 40.3183C91.9129 40.3183 93.658 42.0633 93.658 44.2152ZM112.383 19.053C112.383 22.2808 109.765 24.8983 106.537 24.8983C103.309 24.8983 100.693 22.2808 100.693 19.053C100.693 15.8252 103.309 13.2078 106.537 13.2078C109.765 13.2078 112.383 15.8252 112.383 19.053ZM129.16 27.4407C129.16 30.6685 126.542 33.2859 123.314 33.2859C120.086 33.2859 117.468 30.6685 117.468 27.4407C117.468 24.2129 120.086 21.5955 123.314 21.5955C126.542 21.5955 129.16 24.2129 129.16 27.4407ZM145.935 35.8275C145.935 39.057 143.318 41.6728 140.091 41.6728C136.862 41.6728 134.246 39.057 134.246 35.8275C134.246 32.5997 136.862 29.984 140.091 29.984C143.318 29.984 145.935 32.5997 145.935 35.8275ZM129.16 44.2157C129.16 47.4435 126.542 50.0609 123.314 50.0609C120.086 50.0609 117.468 47.4435 117.468 44.2157C117.468 40.9879 120.086 38.3704 123.314 38.3704C126.542 38.3704 129.16 40.9879 129.16 44.2157ZM162.711 44.2157C162.711 47.4435 160.094 50.0609 156.865 50.0609C153.637 50.0609 151.02 47.4435 151.02 44.2157C151.02 40.9879 153.637 38.3704 156.865 38.3704C160.094 38.3704 162.711 40.9879 162.711 44.2157ZM160.763 60.9902C160.763 63.142 159.018 64.887 156.866 64.887C154.714 64.887 152.969 63.142 152.969 60.9902C152.969 58.8383 154.714 57.0933 156.866 57.0933C159.018 57.0933 160.763 58.8383 160.763 60.9902ZM177.54 52.6028C177.54 54.7547 175.795 56.4997 173.643 56.4997C171.491 56.4997 169.746 54.7547 169.746 52.6028C169.746 50.451 171.491 48.706 173.643 48.706C175.795 48.706 177.54 50.451 177.54 52.6028ZM179.489 35.828C179.489 39.0558 176.869 41.6715 173.643 41.6715C170.417 41.6715 167.797 39.0558 167.797 35.828C167.797 32.6002 170.417 29.9845 173.643 29.9845C176.869 29.9845 179.489 32.6002 179.489 35.828ZM162.711 27.4404C162.711 30.6682 160.094 33.2856 156.865 33.2856C153.637 33.2856 151.02 30.6682 151.02 27.4404C151.02 24.2125 153.637 21.5951 156.865 21.5951C160.094 21.5951 162.711 24.2125 162.711 27.4404ZM143.988 52.6028C143.988 54.7547 142.243 56.4997 140.091 56.4997C137.939 56.4997 136.192 54.7547 136.192 52.6028C136.192 50.451 137.939 48.706 140.091 48.706C142.243 48.706 143.988 50.451 143.988 52.6028ZM179.489 19.0527C179.489 22.2805 176.871 24.8979 173.643 24.8979C170.417 24.8979 167.797 22.2805 167.797 19.0527C167.797 15.8249 170.417 13.2074 173.643 13.2074C176.871 13.2074 179.489 15.8249 179.489 19.0527ZM194.317 10.665C194.317 12.8169 192.572 14.5618 190.42 14.5618C188.266 14.5618 186.523 12.8169 186.523 10.665C186.523 8.51314 188.266 6.76819 190.42 6.76819C192.572 6.76819 194.317 8.51314 194.317 10.665ZM194.317 44.2157C194.317 46.3676 192.572 48.1125 190.42 48.1125C188.268 48.1125 186.523 46.3676 186.523 44.2157C186.523 42.0638 188.268 40.3189 190.42 40.3189C192.572 40.3189 194.317 42.0638 194.317 44.2157ZM143.988 19.053C143.988 21.2049 142.243 22.9499 140.091 22.9499C137.939 22.9499 136.192 21.2049 136.192 19.053C136.192 16.9012 137.939 15.1562 140.091 15.1562C142.243 15.1562 143.988 16.9012 143.988 19.053ZM127.211 60.9905C127.211 63.1424 125.466 64.8873 123.314 64.8873C121.162 64.8873 119.417 63.1424 119.417 60.9905C119.417 58.8386 121.162 57.0937 123.314 57.0937C125.466 57.0937 127.211 58.8386 127.211 60.9905ZM112.383 35.8275C112.383 39.0553 109.765 41.6728 106.537 41.6728C103.309 41.6728 100.693 39.0553 100.693 35.8275C100.693 32.5997 103.309 29.984 106.537 29.984C109.765 29.984 112.383 32.5997 112.383 35.8275Z" fill="white"/>
<path fill-rule="evenodd" clip-rule="evenodd" d="M95.6064 27.4405C95.6064 30.6683 92.9888 33.2857 89.7607 33.2857C86.5344 33.2857 83.9167 30.6683 83.9167 27.4405C83.9167 24.2126 86.5344 21.5952 89.7607 21.5952C92.9888 21.5952 95.6064 24.2126 95.6064 27.4405Z" fill="#E15295"/>
<path fill-rule="evenodd" clip-rule="evenodd" d="M75.2629 52.6029C75.2629 53.8616 74.242 54.8806 72.985 54.8806C71.7261 54.8806 70.707 53.8616 70.707 52.6029C70.707 51.3459 71.7261 50.3252 72.985 50.3252C74.242 50.3252 75.2629 51.3459 75.2629 52.6029ZM75.2629 35.8281C75.2629 37.0851 74.242 38.1058 72.985 38.1058C71.7261 38.1058 70.707 37.0851 70.707 35.8281C70.707 34.5694 71.7261 33.5503 72.985 33.5503C74.242 33.5503 75.2629 34.5694 75.2629 35.8281ZM108.815 52.4846C108.815 53.7433 107.796 54.7624 106.537 54.7624C105.28 54.7624 104.259 53.7433 104.259 52.4846C104.259 51.2276 105.28 50.2069 106.537 50.2069C107.796 50.2069 108.815 51.2276 108.815 52.4846ZM108.815 2.27775C108.815 3.53646 107.796 4.5555 106.537 4.5555C105.279 4.5555 104.259 3.53646 104.259 2.27775C104.259 1.01904 105.279 0 106.537 0C107.796 0 108.815 1.01904 108.815 2.27775ZM142.25 69.3784C142.25 70.6354 141.231 71.6562 139.972 71.6562C138.713 71.6562 137.694 70.6354 137.694 69.3784C137.694 68.1214 138.713 67.1007 139.972 67.1007C141.231 67.1007 142.25 68.1214 142.25 69.3784ZM92.0395 10.6651C92.0395 11.9221 91.0204 12.9428 89.7616 12.9428C88.5028 12.9428 87.4819 11.9221 87.4819 10.6651C87.4819 9.40636 88.5028 8.38732 89.7616 8.38732C91.0204 8.38732 92.0395 9.40636 92.0395 10.6651ZM125.592 10.6651C125.592 11.9221 124.571 12.9428 123.314 12.9428C122.055 12.9428 121.036 11.9221 121.036 10.6651C121.036 9.40636 122.055 8.38732 123.314 8.38732C124.571 8.38732 125.592 9.40636 125.592 10.6651Z" fill="white"/>
<path fill-rule="evenodd" clip-rule="evenodd" d="M142.25 69.3784C142.25 70.6354 141.231 71.6561 139.972 71.6561C138.713 71.6561 137.694 70.6354 137.694 69.3784C137.694 68.1214 138.713 67.1006 139.972 67.1006C141.231 67.1006 142.25 68.1214 142.25 69.3784ZM226.251 27.4404C226.251 28.6974 225.23 29.7181 223.973 29.7181C222.714 29.7181 221.693 28.6974 221.693 27.4404C221.693 26.1834 222.714 25.1626 223.973 25.1626C225.23 25.1626 226.251 26.1834 226.251 27.4404ZM192.698 60.9902C192.698 62.2489 191.679 63.2679 190.42 63.2679C189.163 63.2679 188.142 62.2489 188.142 60.9902C188.142 59.7332 189.163 58.7124 190.42 58.7124C191.679 58.7124 192.698 59.7332 192.698 60.9902ZM213.041 19.0531C213.041 22.2809 210.423 24.8966 207.195 24.8966C203.967 24.8966 201.351 22.2809 201.351 19.0531C201.351 15.8252 203.967 13.2095 207.195 13.2095C210.423 13.2095 213.041 15.8252 213.041 19.0531ZM196.265 27.4407C196.265 30.6685 193.648 33.2842 190.42 33.2842C187.191 33.2842 184.574 30.6685 184.574 27.4407C184.574 24.2129 187.191 21.5955 190.42 21.5955C193.648 21.5955 196.265 24.2129 196.265 27.4407ZM209.474 52.6029C209.474 53.8616 208.454 54.8806 207.196 54.8806C205.937 54.8806 204.918 53.8616 204.918 52.6029C204.918 51.3459 205.937 50.3251 207.196 50.3251C208.454 50.3251 209.474 51.3459 209.474 52.6029ZM211.093 35.828C211.093 37.9799 209.349 39.7249 207.195 39.7249C205.043 39.7249 203.298 37.9799 203.298 35.828C203.298 33.6762 205.043 31.9312 207.195 31.9312C209.349 31.9312 211.093 33.6762 211.093 35.828ZM159.144 10.665C159.144 11.922 158.125 12.9428 156.866 12.9428C155.607 12.9428 154.588 11.922 154.588 10.665C154.588 9.40633 155.607 8.38729 156.866 8.38729C158.125 8.38729 159.144 9.40633 159.144 10.665ZM209.474 2.27824C209.474 3.53522 208.454 4.55599 207.197 4.55599C205.937 4.55599 204.918 3.53522 204.918 2.27824C204.918 1.01953 205.937 0.000488281 207.197 0.000488281C208.454 0.000488281 209.474 1.01953 209.474 2.27824ZM226.251 10.665C226.251 11.922 225.23 12.9428 223.973 12.9428C222.714 12.9428 221.693 11.922 221.693 10.665C221.693 9.40633 222.714 8.38729 223.973 8.38729C225.23 8.38729 226.251 9.40633 226.251 10.665ZM15.7446 110.348C16.0481 109.616 16.105 109.018 15.9153 108.572C15.7687 108.23 15.479 107.973 15.0514 107.808C14.0115 107.427 13.1838 107.923 12.632 109.265L8.74352 118.693L3.38239 109.065C3.0651 108.468 2.68401 108.065 2.24774 107.866C1.80457 107.663 1.31484 107.694 0.794073 107.965C0.309518 108.235 0.045686 108.653 0.00602493 109.204C-0.0319117 109.741 0.109488 110.277 0.425052 110.796L7.01396 122.245C6.72254 122.998 6.41042 123.567 6.08796 123.935C5.76722 124.3 5.39648 124.478 4.95331 124.478C4.75328 124.478 4.56704 124.459 4.39461 124.423C4.22217 124.386 4.01869 124.323 3.78934 124.23C3.54448 124.133 3.37549 124.074 3.28582 124.057C2.29429 123.733 1.61833 124.012 1.29415 124.866C0.9303 125.833 1.28208 126.618 2.34085 127.195C3.03578 127.581 3.97385 127.778 5.12402 127.778C6.40352 127.778 7.47092 127.292 8.29518 126.331C9.10392 125.388 9.96612 123.854 10.8576 121.771L15.7446 110.348ZM21.0928 127.494C21.6532 127.494 22.1015 127.32 22.4257 126.975C22.7499 126.632 22.9137 126.186 22.9137 125.644V118.999H31.7168V125.644C31.7168 126.184 31.8754 126.632 32.1875 126.974C32.5014 127.318 32.9566 127.494 33.5377 127.494C34.0981 127.494 34.5482 127.32 34.8724 126.974C35.1949 126.632 35.3569 126.184 35.3569 125.644V109.536C35.3569 108.996 35.1949 108.545 34.8741 108.193C34.5482 107.838 34.0981 107.658 33.5377 107.658C32.9566 107.658 32.5014 107.839 32.1858 108.195C31.8737 108.546 31.7168 108.996 31.7168 109.536V115.728H22.9137V109.536C22.9137 108.996 22.7499 108.545 22.4274 108.193C22.1033 107.838 21.6549 107.658 21.0928 107.658C20.5116 107.658 20.0564 107.839 19.7408 108.195C19.4287 108.546 19.2718 108.998 19.2718 109.536V125.644C19.2718 126.184 19.4305 126.63 19.7426 126.974C20.0564 127.318 20.5116 127.494 21.0928 127.494ZM42.2604 127.494C42.8449 127.494 43.4106 127.144 43.9451 126.453L52.9689 114.124V125.644C52.9689 126.165 53.1275 126.606 53.4379 126.958C53.7535 127.313 54.219 127.494 54.8191 127.494C55.4003 127.494 55.8503 127.318 56.1573 126.972C56.4573 126.63 56.6108 126.184 56.6108 125.644V109.536C56.6108 108.289 56.0262 107.658 54.876 107.658C54.2139 107.658 53.6276 108 53.1344 108.672L44.1658 121.082V109.536C44.1658 108.998 44.0089 108.546 43.6968 108.195C43.3812 107.839 42.926 107.658 42.3449 107.658C41.7448 107.658 41.2844 107.839 40.9792 108.196C40.6774 108.548 40.5239 108.998 40.5239 109.536V125.644C40.5239 126.222 40.6791 126.679 40.9809 127.003C41.2878 127.329 41.7189 127.494 42.2604 127.494ZM71.5608 123.901C70.8727 124.359 69.8295 124.592 68.4568 124.592C67.2256 124.592 66.1565 124.539 65.2771 124.433V118.743H68.4293C71.2176 118.743 72.5747 119.692 72.5747 121.638C72.5747 122.692 72.2333 123.452 71.5608 123.901ZM68.0585 115.955H65.2771V110.72C66.1393 110.634 66.979 110.589 67.7757 110.589C70.3744 110.589 71.6366 111.417 71.6366 113.115C71.6366 115.026 70.4658 115.955 68.0585 115.955ZM72.9661 116.874C73.6611 116.505 74.2267 115.969 74.6509 115.279C75.1234 114.505 75.3648 113.664 75.3648 112.776C75.3648 109.286 72.9161 107.517 68.0878 107.517C66.3858 107.517 64.8391 107.632 63.4923 107.86C62.3542 108.058 61.7765 108.737 61.7765 109.877V125.39C61.7765 126.511 62.3456 127.163 63.4664 127.321C64.8098 127.53 66.441 127.637 68.3154 127.637C73.6145 127.637 76.3011 125.571 76.3011 121.497C76.3011 120.359 75.9769 119.364 75.3389 118.542C74.7543 117.79 73.9577 117.229 72.9661 116.874ZM93.6107 127.051C93.928 126.754 94.0884 126.357 94.0884 125.873C94.0884 125.368 93.928 124.963 93.6107 124.664C93.2952 124.371 92.8727 124.223 92.3519 124.223H84.2576V118.941H90.4775C91.0173 118.941 91.4518 118.788 91.7656 118.483C92.0812 118.178 92.2416 117.778 92.2416 117.293C92.2416 116.786 92.0795 116.384 91.7622 116.098C91.4483 115.814 91.0155 115.67 90.4775 115.67H84.2576V110.93H92.0674C92.5899 110.93 93.0124 110.78 93.3262 110.487C93.6435 110.191 93.8039 109.794 93.8039 109.308C93.8039 108.803 93.6435 108.398 93.3262 108.101C93.0124 107.808 92.5882 107.658 92.0674 107.658H82.4643C81.8831 107.658 81.4245 107.839 81.1003 108.192C80.7778 108.546 80.614 108.998 80.614 109.536V125.616C80.614 126.156 80.783 126.609 81.1158 126.961C81.4486 127.314 81.9125 127.494 82.4936 127.494H92.3519C92.8727 127.494 93.2952 127.345 93.6107 127.051ZM101.333 110.888C102.123 110.784 102.914 110.731 103.688 110.731C106.306 110.731 107.58 111.8 107.58 113.997C107.58 116.347 106.242 117.488 103.49 117.488C102.59 117.488 101.866 117.455 101.333 117.39V110.888ZM111.391 113.91C111.391 111.724 110.701 110.091 109.343 109.06C107.992 108.036 106.118 107.517 103.774 107.517C102.107 107.517 100.627 107.641 99.3756 107.888C98.2581 108.108 97.6908 108.815 97.6908 109.989V125.646C97.6908 126.184 97.8495 126.63 98.1616 126.973C98.4771 127.32 98.9307 127.494 99.5118 127.494C100.074 127.494 100.522 127.32 100.846 126.975C101.169 126.632 101.333 126.185 101.333 125.646V120.552C101.9 120.635 102.692 120.676 103.688 120.676C105.959 120.676 107.829 120.102 109.244 118.975C110.669 117.838 111.391 116.135 111.391 113.91ZM127.412 123.3C126.054 124.1 124.716 124.505 123.436 124.505C121.832 124.505 120.489 123.885 119.447 122.657C118.401 121.426 117.87 119.707 117.87 117.548C117.87 115.463 118.363 113.77 119.337 112.518C120.918 110.487 123.522 110.089 127.033 111.434C128.214 111.875 128.992 111.692 129.339 110.92C129.744 110.051 129.501 109.304 128.618 108.703C127.354 107.821 125.562 107.375 123.295 107.375C120.411 107.375 118.127 108.309 116.502 110.154C114.88 111.996 114.057 114.493 114.057 117.576C114.057 120.697 114.831 123.202 116.357 125.023C117.89 126.852 120.186 127.778 123.181 127.778C125.543 127.778 127.518 127.207 129.047 126.078C129.54 125.704 129.847 125.269 129.958 124.79C130.068 124.302 129.99 123.878 129.727 123.533C129.221 122.805 128.435 122.717 127.412 123.3ZM148.269 107.658C147.609 107.658 147.023 107.999 146.528 108.672L137.561 121.081V109.536C137.561 108.998 137.402 108.546 137.092 108.194C136.775 107.839 136.321 107.658 135.74 107.658C135.138 107.658 134.679 107.839 134.372 108.196C134.071 108.548 133.919 108.998 133.919 109.536V125.646C133.919 126.221 134.072 126.678 134.376 127.002C134.681 127.328 135.112 127.494 135.655 127.494C136.238 127.494 136.806 127.144 137.338 126.452L146.364 114.124V125.646C146.364 126.165 146.521 126.608 146.833 126.958C147.148 127.313 147.612 127.494 148.212 127.494C148.795 127.494 149.244 127.318 149.551 126.971C149.852 126.63 150.006 126.183 150.006 125.646V109.536C150.006 108.289 149.421 107.658 148.269 107.658ZM170.15 109.28C170.15 108.775 169.99 108.373 169.671 108.085C169.357 107.802 168.924 107.657 168.386 107.657H154.919C154.4 107.657 153.975 107.802 153.66 108.085C153.343 108.373 153.182 108.775 153.182 109.28C153.182 109.765 153.343 110.166 153.658 110.471C153.974 110.777 154.396 110.93 154.919 110.93H159.831V125.645C159.831 126.183 159.988 126.631 160.302 126.973C160.616 127.319 161.071 127.493 161.652 127.493C162.233 127.493 162.687 127.319 163.001 126.973C163.315 126.631 163.473 126.185 163.473 125.645V110.93H168.386C168.926 110.93 169.36 110.777 169.674 110.471C169.99 110.166 170.15 109.765 170.15 109.28ZM185.064 124.222H176.97V118.942H183.19C183.73 118.942 184.164 118.787 184.478 118.484C184.794 118.179 184.954 117.777 184.954 117.292C184.954 116.787 184.792 116.384 184.475 116.097C184.161 115.815 183.728 115.67 183.19 115.67H176.97V110.93H184.78C185.302 110.93 185.725 110.782 186.039 110.487C186.356 110.192 186.516 109.795 186.516 109.309C186.516 108.804 186.356 108.397 186.039 108.102C185.725 107.807 185.301 107.659 184.78 107.659H175.177C174.595 107.659 174.137 107.838 173.813 108.193C173.49 108.545 173.326 108.997 173.326 109.537V125.617C173.326 126.157 173.495 126.608 173.828 126.96C174.161 127.314 174.625 127.495 175.206 127.495H185.064C185.585 127.495 186.008 127.345 186.323 127.05C186.64 126.755 186.801 126.358 186.801 125.872C186.801 125.369 186.64 124.962 186.323 124.665C186.008 124.37 185.585 124.222 185.064 124.222ZM205.099 109.28C205.099 108.775 204.938 108.373 204.619 108.085C204.305 107.802 203.873 107.657 203.335 107.657H189.867C189.348 107.657 188.924 107.802 188.608 108.085C188.291 108.373 188.131 108.775 188.131 109.28C188.131 109.765 188.291 110.166 188.607 110.471C188.922 110.777 189.345 110.93 189.867 110.93H194.78V125.645C194.78 126.183 194.937 126.631 195.251 126.973C195.564 127.319 196.02 127.493 196.601 127.493C197.182 127.493 197.635 127.319 197.949 126.973C198.263 126.631 198.422 126.185 198.422 125.645V110.93H203.335C203.874 110.93 204.309 110.777 204.623 110.471C204.938 110.166 205.099 109.765 205.099 109.28ZM232.317 125.645V109.535C232.317 108.29 231.733 107.657 230.583 107.657C229.921 107.657 229.336 107.999 228.839 108.671L219.873 121.081V109.535C219.873 108.997 219.714 108.545 219.403 108.194C219.088 107.839 218.633 107.657 218.053 107.657C217.451 107.657 216.991 107.839 216.686 108.195C216.384 108.549 216.231 108.999 216.231 109.535V125.645C216.231 126.221 216.386 126.678 216.689 127.002C216.995 127.33 217.424 127.495 217.967 127.495C218.552 127.495 219.117 127.145 219.652 126.452L228.676 114.125V125.645C228.676 126.166 228.834 126.607 229.146 126.957C229.46 127.314 229.924 127.495 230.526 127.495C231.107 127.495 231.557 127.319 231.862 126.973C232.166 126.63 232.317 126.183 232.317 125.645ZM250.699 107.658H237.231C236.712 107.658 236.29 107.801 235.973 108.086C235.655 108.374 235.495 108.774 235.495 109.281C235.495 109.765 235.655 110.165 235.971 110.472C236.286 110.775 236.709 110.931 237.231 110.931H242.144V125.646C242.144 126.183 242.303 126.63 242.615 126.973C242.931 127.32 243.384 127.494 243.965 127.494C244.546 127.494 245 127.32 245.314 126.973C245.628 126.63 245.786 126.183 245.786 125.646V110.931H250.699C251.239 110.931 251.672 110.775 251.987 110.472C252.303 110.165 252.463 109.765 252.463 109.281C252.463 108.774 252.303 108.374 251.984 108.086C251.67 107.801 251.237 107.658 250.699 107.658ZM272.037 107.658C271.335 107.658 270.738 108.039 270.262 108.793L264.677 117.812L258.981 108.822C258.505 108.049 257.879 107.658 257.121 107.658C256.617 107.658 256.202 107.818 255.888 108.132C255.572 108.448 255.413 108.931 255.413 109.565V125.646C255.413 126.871 255.988 127.494 257.121 127.494C258.254 127.494 258.828 126.871 258.828 125.646V114.621L262.818 120.876C263.256 121.573 263.823 121.925 264.508 121.925C265.174 121.925 265.732 121.562 266.17 120.849L270.102 114.49V125.646C270.102 126.183 270.266 126.632 270.59 126.975C270.914 127.32 271.362 127.494 271.925 127.494C272.504 127.494 272.959 127.32 273.273 126.973C273.585 126.632 273.744 126.183 273.744 125.646V109.536C273.744 108.979 273.597 108.524 273.304 108.182C273.007 107.834 272.582 107.658 272.037 107.658ZM291.678 122.578C290.71 123.857 289.303 124.506 287.494 124.506C285.704 124.506 284.306 123.857 283.339 122.578C282.364 121.288 281.871 119.605 281.871 117.576C281.871 115.548 282.364 113.865 283.339 112.574C284.306 111.296 285.704 110.646 287.494 110.646C289.303 110.646 290.71 111.296 291.678 112.574C292.652 113.865 293.145 115.548 293.145 117.576C293.145 119.605 292.652 121.288 291.678 122.578ZM294.485 110.256C292.842 108.344 290.49 107.375 287.494 107.375C284.497 107.375 282.151 108.344 280.516 110.256C278.886 112.162 278.059 114.626 278.059 117.576C278.059 120.547 278.886 123.014 280.516 124.911C282.152 126.814 284.499 127.778 287.494 127.778C290.49 127.778 292.842 126.814 294.485 124.911C296.127 123.014 296.958 120.547 296.958 117.576C296.958 114.626 296.127 112.162 294.485 110.256Z" fill="white"/>
</svg>
