<svg width="413" height="89" viewBox="0 0 413 89" fill="none" xmlns="http://www.w3.org/2000/svg">
<g opacity="0.3">
<path d="M47.2865 64.7868C47.2865 61.7328 46.1987 59.3532 44.0233 57.6477C41.8874 55.9423 38.11 54.1774 32.6911 52.3529C27.2723 50.5285 22.8423 48.7636 19.4011 47.0582C8.20739 41.5452 2.61054 33.9699 2.61054 24.3322C2.61054 19.5332 3.99492 15.3093 6.76368 11.6604C9.572 7.97192 13.5274 5.11631 18.6298 3.09358C23.7322 1.03119 29.4675 0 35.8357 0C42.0456 0 47.6029 1.11052 52.5075 3.33155C57.4518 5.55258 61.2885 8.72549 64.0177 12.8503C66.7469 16.9354 68.1115 21.6154 68.1115 26.8904H47.3458C47.3458 23.3605 46.2581 20.6239 44.0826 18.6805C41.9467 16.7371 39.0395 15.7654 35.361 15.7654C31.643 15.7654 28.6962 16.5983 26.5208 18.264C24.3849 19.8902 23.3169 21.9724 23.3169 24.5107C23.3169 26.7317 24.5035 28.7545 26.8767 30.5789C29.25 32.3636 33.4229 34.2277 39.3955 36.1711C45.3681 38.0749 50.2728 40.1373 54.1095 42.3583C63.4441 47.7522 68.1115 55.1887 68.1115 64.6678C68.1115 72.2431 65.2636 78.1923 59.5679 82.5154C53.8721 86.8385 46.0603 89 36.1323 89C29.1313 89 22.7829 87.7507 17.0872 85.252C11.431 82.7137 7.15922 79.2631 4.2718 74.9004C1.42393 70.498 0 65.4412 0 59.7299H20.8844C20.8844 64.3703 22.071 67.801 24.4442 70.0221C26.857 72.2034 30.753 73.2941 36.1323 73.2941C39.5735 73.2941 42.2829 72.5604 44.2606 71.0929C46.2778 69.5858 47.2865 67.4837 47.2865 64.7868Z" fill="#3768C1"/>
<path d="M151.946 46.2848C151.946 54.7326 150.383 62.2088 147.258 68.7132C144.134 75.2177 139.684 80.2348 133.909 83.7647C128.174 87.2549 121.628 89 114.271 89C106.914 89 100.387 87.3144 94.6916 83.9432C88.9958 80.5323 84.546 75.6738 81.3422 69.3676C78.1779 63.0615 76.5166 55.8233 76.3584 47.6531V42.7747C76.3584 34.2872 77.901 26.8111 80.9862 20.3463C84.1109 13.8418 88.5607 8.82464 94.3356 5.29479C100.15 1.76493 106.755 0 114.152 0C121.469 0 127.996 1.7451 133.731 5.23529C139.466 8.72549 143.916 13.703 147.08 20.1678C150.284 26.5929 151.906 33.9699 151.946 42.2988V46.2848ZM130.765 42.6557C130.765 34.0492 129.321 27.525 126.433 23.0829C123.586 18.6012 119.492 16.3603 114.152 16.3603C103.71 16.3603 98.1921 24.2132 97.5988 39.9191L97.5394 46.2848C97.5394 54.7723 98.9436 61.2966 101.752 65.8576C104.56 70.4187 108.733 72.6992 114.271 72.6992C119.531 72.6992 123.586 70.4583 126.433 65.9766C129.281 61.4949 130.725 55.0499 130.765 46.6417V42.6557Z" fill="#3768C1"/>
<path d="M235.839 46.2848C235.839 54.7326 234.277 62.2088 231.152 68.7132C228.027 75.2177 223.577 80.2348 217.802 83.7647C212.067 87.2549 205.521 89 198.164 89C190.807 89 184.281 87.3144 178.585 83.9432C172.889 80.5323 168.439 75.6738 165.236 69.3676C162.071 63.0615 160.41 55.8233 160.252 47.6531V42.7747C160.252 34.2872 161.794 26.8111 164.88 20.3463C168.004 13.8418 172.454 8.82464 178.229 5.29479C184.043 1.76493 190.649 0 198.045 0C205.363 0 211.889 1.7451 217.624 5.23529C223.36 8.72549 227.81 13.703 230.974 20.1678C234.178 26.5929 235.799 33.9699 235.839 42.2988V46.2848ZM214.658 42.6557C214.658 34.0492 213.214 27.525 210.327 23.0829C207.479 18.6012 203.385 16.3603 198.045 16.3603C187.603 16.3603 182.085 24.2132 181.492 39.9191L181.433 46.2848C181.433 54.7723 182.837 61.2966 185.645 65.8576C188.454 70.4187 192.627 72.6992 198.164 72.6992C203.425 72.6992 207.479 70.4583 210.327 65.9766C213.175 61.4949 214.618 55.0499 214.658 46.6417V42.6557Z" fill="#3768C1"/>
<path d="M318.724 87.8102H298.017L267.403 33.9104V87.8102H246.578V1.18984H267.403L297.958 55.0896V1.18984H318.724V87.8102Z" fill="#3768C1"/>
<path d="M343.999 68.3563C347.163 68.3563 349.793 69.3082 351.89 71.2119C353.986 73.076 355.034 75.4755 355.034 78.4104C355.034 81.3454 353.986 83.7647 351.89 85.6684C349.793 87.5325 347.163 88.4646 343.999 88.4646C340.795 88.4646 338.145 87.5127 336.048 85.609C333.991 83.7052 332.963 81.3057 332.963 78.4104C332.963 75.5151 333.991 73.1156 336.048 71.2119C338.145 69.3082 340.795 68.3563 343.999 68.3563ZM373.011 68.3563C376.175 68.3563 378.806 69.3082 380.902 71.2119C382.999 73.076 384.047 75.4755 384.047 78.4104C384.047 81.3454 382.999 83.7647 380.902 85.6684C378.806 87.5325 376.175 88.4646 373.011 88.4646C369.807 88.4646 367.157 87.5127 365.061 85.609C363.004 83.7052 361.976 81.3057 361.976 78.4104C361.976 75.5151 363.004 73.1156 365.061 71.2119C367.157 69.3082 369.807 68.3563 373.011 68.3563ZM401.965 68.3563C405.129 68.3563 407.759 69.3082 409.855 71.2119C411.952 73.076 413 75.4755 413 78.4104C413 81.3454 411.952 83.7647 409.855 85.6684C407.759 87.5325 405.129 88.4646 401.965 88.4646C398.761 88.4646 396.111 87.5127 394.014 85.609C391.957 83.7052 390.929 81.3057 390.929 78.4104C390.929 75.5151 391.957 73.1156 394.014 71.2119C396.111 69.3082 398.761 68.3563 401.965 68.3563Z" fill="#3768C1"/>
</g>
</svg>
